<mxfile host="65bd71144e">
    <diagram id="Q-W-3p3Dm_MC-ti0eRAn" name="Page-1">
        <mxGraphModel dx="2710" dy="2547" grid="1" gridSize="10" guides="1" tooltips="1" connect="1" arrows="1" fold="1" page="1" pageScale="1" pageWidth="827" pageHeight="1169" math="0" shadow="0">
            <root>
                <mxCell id="0"/>
                <mxCell id="1" parent="0"/>
                <mxCell id="2" value="&lt;font style=&quot;font-size: 26px;&quot;&gt;书籍&lt;/font&gt;" style="rounded=0;whiteSpace=wrap;html=1;" parent="1" vertex="1">
                    <mxGeometry x="290" y="770" width="120" height="60" as="geometry"/>
                </mxCell>
                <mxCell id="3" value="作者" style="ellipse;whiteSpace=wrap;html=1;rounded=0;" parent="1" vertex="1">
                    <mxGeometry x="-90" y="630" width="120" height="80" as="geometry"/>
                </mxCell>
                <mxCell id="8" value="出版社" style="ellipse;whiteSpace=wrap;html=1;rounded=0;" parent="1" vertex="1">
                    <mxGeometry x="-80" y="760" width="120" height="80" as="geometry"/>
                </mxCell>
                <mxCell id="38" value="" style="endArrow=none;html=1;fontSize=26;entryX=1;entryY=1;entryDx=0;entryDy=0;exitX=0;exitY=0;exitDx=0;exitDy=0;rounded=0;" parent="1" source="2" target="3" edge="1">
                    <mxGeometry width="50" height="50" relative="1" as="geometry">
                        <mxPoint x="260" y="610" as="sourcePoint"/>
                        <mxPoint x="310" y="560" as="targetPoint"/>
                    </mxGeometry>
                </mxCell>
                <mxCell id="39" value="" style="endArrow=none;html=1;fontSize=26;exitX=0;exitY=0.25;exitDx=0;exitDy=0;entryX=1;entryY=0.5;entryDx=0;entryDy=0;rounded=0;" parent="1" source="2" target="8" edge="1">
                    <mxGeometry width="50" height="50" relative="1" as="geometry">
                        <mxPoint x="310" y="620" as="sourcePoint"/>
                        <mxPoint x="250" y="660" as="targetPoint"/>
                    </mxGeometry>
                </mxCell>
                <mxCell id="41" value="" style="endArrow=none;html=1;fontSize=26;exitX=0.25;exitY=0;exitDx=0;exitDy=0;entryX=0.5;entryY=1;entryDx=0;entryDy=0;rounded=0;" parent="1" source="2" target="XzbfhV3OgB3xZBFxIBU7-50" edge="1">
                    <mxGeometry width="50" height="50" relative="1" as="geometry">
                        <mxPoint x="270" y="670" as="sourcePoint"/>
                        <mxPoint x="219.99999999999977" y="480" as="targetPoint"/>
                    </mxGeometry>
                </mxCell>
                <mxCell id="42" value="价格" style="ellipse;whiteSpace=wrap;html=1;rounded=0;" parent="1" vertex="1">
                    <mxGeometry x="-60" y="890" width="120" height="80" as="geometry"/>
                </mxCell>
                <mxCell id="43" value="" style="endArrow=none;html=1;fontSize=26;exitX=0;exitY=0.5;exitDx=0;exitDy=0;entryX=1;entryY=0.5;entryDx=0;entryDy=0;rounded=0;" parent="1" source="2" target="42" edge="1">
                    <mxGeometry width="50" height="50" relative="1" as="geometry">
                        <mxPoint x="310" y="635" as="sourcePoint"/>
                        <mxPoint x="170" y="670" as="targetPoint"/>
                    </mxGeometry>
                </mxCell>
                <mxCell id="45" value="" style="endArrow=none;html=1;exitX=1;exitY=0.5;exitDx=0;exitDy=0;entryX=0;entryY=0.5;entryDx=0;entryDy=0;" parent="1" source="2" edge="1" target="49">
                    <mxGeometry width="50" height="50" relative="1" as="geometry">
                        <mxPoint x="440" y="560" as="sourcePoint"/>
                        <mxPoint x="480" y="640" as="targetPoint"/>
                    </mxGeometry>
                </mxCell>
                <mxCell id="49" value="供应" style="rhombus;whiteSpace=wrap;html=1;" parent="1" vertex="1">
                    <mxGeometry x="530" y="760" width="130" height="80" as="geometry"/>
                </mxCell>
                <mxCell id="XzbfhV3OgB3xZBFxIBU7-49" value="关键词" style="ellipse;whiteSpace=wrap;html=1;rounded=0;" vertex="1" parent="1">
                    <mxGeometry y="980" width="120" height="80" as="geometry"/>
                </mxCell>
                <mxCell id="XzbfhV3OgB3xZBFxIBU7-50" value="书名" style="ellipse;whiteSpace=wrap;html=1;rounded=0;" vertex="1" parent="1">
                    <mxGeometry x="-40" y="504.5" width="120" height="80" as="geometry"/>
                </mxCell>
                <mxCell id="XzbfhV3OgB3xZBFxIBU7-51" value="" style="endArrow=none;html=1;fontSize=26;exitX=0;exitY=1;exitDx=0;exitDy=0;entryX=1;entryY=0;entryDx=0;entryDy=0;rounded=0;" edge="1" parent="1" source="2" target="XzbfhV3OgB3xZBFxIBU7-49">
                    <mxGeometry width="50" height="50" relative="1" as="geometry">
                        <mxPoint x="339.9999999999998" y="670" as="sourcePoint"/>
                        <mxPoint x="210.00000000000205" y="800" as="targetPoint"/>
                    </mxGeometry>
                </mxCell>
                <mxCell id="XzbfhV3OgB3xZBFxIBU7-52" value="系列信息" style="ellipse;whiteSpace=wrap;html=1;rounded=0;" vertex="1" parent="1">
                    <mxGeometry x="80" y="1060" width="120" height="80" as="geometry"/>
                </mxCell>
                <mxCell id="XzbfhV3OgB3xZBFxIBU7-53" value="" style="endArrow=none;html=1;fontSize=26;exitX=0.25;exitY=1;exitDx=0;exitDy=0;entryX=0.5;entryY=0;entryDx=0;entryDy=0;rounded=0;" edge="1" parent="1" source="2" target="XzbfhV3OgB3xZBFxIBU7-52">
                    <mxGeometry width="50" height="50" relative="1" as="geometry">
                        <mxPoint x="309.9999999999998" y="680" as="sourcePoint"/>
                        <mxPoint x="162.42640687119592" y="871.715728752536" as="targetPoint"/>
                    </mxGeometry>
                </mxCell>
                <mxCell id="XzbfhV3OgB3xZBFxIBU7-54" value="库存量" style="ellipse;whiteSpace=wrap;html=1;rounded=0;" vertex="1" parent="1">
                    <mxGeometry x="210" y="1100" width="120" height="80" as="geometry"/>
                </mxCell>
                <mxCell id="XzbfhV3OgB3xZBFxIBU7-55" value="" style="endArrow=none;html=1;fontSize=26;exitX=0.5;exitY=1;exitDx=0;exitDy=0;entryX=0.5;entryY=0;entryDx=0;entryDy=0;rounded=0;" edge="1" parent="1" source="2" target="XzbfhV3OgB3xZBFxIBU7-54">
                    <mxGeometry width="50" height="50" relative="1" as="geometry">
                        <mxPoint x="339.9999999999998" y="680" as="sourcePoint"/>
                        <mxPoint x="229.99999999999977" y="960" as="targetPoint"/>
                    </mxGeometry>
                </mxCell>
                <mxCell id="XzbfhV3OgB3xZBFxIBU7-56" value="书号" style="ellipse;whiteSpace=wrap;html=1;rounded=0;" vertex="1" parent="1">
                    <mxGeometry x="90" y="450" width="120" height="80" as="geometry"/>
                </mxCell>
                <mxCell id="XzbfhV3OgB3xZBFxIBU7-57" value="" style="endArrow=none;html=1;fontSize=26;exitX=0.5;exitY=0;exitDx=0;exitDy=0;entryX=0.5;entryY=1;entryDx=0;entryDy=0;rounded=0;" edge="1" parent="1" source="2" target="XzbfhV3OgB3xZBFxIBU7-56">
                    <mxGeometry width="50" height="50" relative="1" as="geometry">
                        <mxPoint x="460" y="735.5" as="sourcePoint"/>
                        <mxPoint x="160" y="550" as="targetPoint"/>
                    </mxGeometry>
                </mxCell>
                <mxCell id="XzbfhV3OgB3xZBFxIBU7-58" value="&lt;font style=&quot;font-size: 26px;&quot;&gt;供应商&lt;/font&gt;" style="rounded=0;whiteSpace=wrap;html=1;" vertex="1" parent="1">
                    <mxGeometry x="760" y="770" width="120" height="60" as="geometry"/>
                </mxCell>
                <mxCell id="XzbfhV3OgB3xZBFxIBU7-59" value="" style="endArrow=none;html=1;exitX=1;exitY=0.5;exitDx=0;exitDy=0;entryX=0;entryY=0.5;entryDx=0;entryDy=0;" edge="1" parent="1" source="49" target="XzbfhV3OgB3xZBFxIBU7-58">
                    <mxGeometry width="50" height="50" relative="1" as="geometry">
                        <mxPoint x="650" y="799.41" as="sourcePoint"/>
                        <mxPoint x="730" y="820" as="targetPoint"/>
                    </mxGeometry>
                </mxCell>
                <mxCell id="XzbfhV3OgB3xZBFxIBU7-60" value="供应商号" style="ellipse;whiteSpace=wrap;html=1;rounded=0;" vertex="1" parent="1">
                    <mxGeometry x="1000" y="560" width="120" height="80" as="geometry"/>
                </mxCell>
                <mxCell id="XzbfhV3OgB3xZBFxIBU7-61" value="" style="endArrow=none;html=1;exitX=0.5;exitY=0;exitDx=0;exitDy=0;entryX=0;entryY=1;entryDx=0;entryDy=0;" edge="1" parent="1" source="XzbfhV3OgB3xZBFxIBU7-58" target="XzbfhV3OgB3xZBFxIBU7-60">
                    <mxGeometry width="50" height="50" relative="1" as="geometry">
                        <mxPoint x="840" y="690" as="sourcePoint"/>
                        <mxPoint x="950" y="690" as="targetPoint"/>
                    </mxGeometry>
                </mxCell>
                <mxCell id="XzbfhV3OgB3xZBFxIBU7-62" value="名称" style="ellipse;whiteSpace=wrap;html=1;rounded=0;" vertex="1" parent="1">
                    <mxGeometry x="1080" y="660" width="120" height="80" as="geometry"/>
                </mxCell>
                <mxCell id="XzbfhV3OgB3xZBFxIBU7-63" value="" style="endArrow=none;html=1;exitX=1;exitY=0;exitDx=0;exitDy=0;entryX=0;entryY=0.5;entryDx=0;entryDy=0;" edge="1" parent="1" source="XzbfhV3OgB3xZBFxIBU7-58" target="XzbfhV3OgB3xZBFxIBU7-62">
                    <mxGeometry width="50" height="50" relative="1" as="geometry">
                        <mxPoint x="830" y="780" as="sourcePoint"/>
                        <mxPoint x="1007.5735931288073" y="608.2842712474619" as="targetPoint"/>
                    </mxGeometry>
                </mxCell>
                <mxCell id="XzbfhV3OgB3xZBFxIBU7-64" value="地址" style="ellipse;whiteSpace=wrap;html=1;rounded=0;" vertex="1" parent="1">
                    <mxGeometry x="1090" y="790" width="120" height="80" as="geometry"/>
                </mxCell>
                <mxCell id="XzbfhV3OgB3xZBFxIBU7-65" value="联系方式" style="ellipse;whiteSpace=wrap;html=1;rounded=0;" vertex="1" parent="1">
                    <mxGeometry x="1010" y="900" width="120" height="80" as="geometry"/>
                </mxCell>
                <mxCell id="XzbfhV3OgB3xZBFxIBU7-66" value="" style="endArrow=none;html=1;exitX=1;exitY=0.5;exitDx=0;exitDy=0;entryX=0;entryY=0.5;entryDx=0;entryDy=0;" edge="1" parent="1" source="XzbfhV3OgB3xZBFxIBU7-58" target="XzbfhV3OgB3xZBFxIBU7-64">
                    <mxGeometry width="50" height="50" relative="1" as="geometry">
                        <mxPoint x="890" y="780" as="sourcePoint"/>
                        <mxPoint x="1020" y="700" as="targetPoint"/>
                    </mxGeometry>
                </mxCell>
                <mxCell id="XzbfhV3OgB3xZBFxIBU7-67" value="" style="endArrow=none;html=1;exitX=1;exitY=1;exitDx=0;exitDy=0;entryX=0;entryY=0.5;entryDx=0;entryDy=0;" edge="1" parent="1" source="XzbfhV3OgB3xZBFxIBU7-58" target="XzbfhV3OgB3xZBFxIBU7-65">
                    <mxGeometry width="50" height="50" relative="1" as="geometry">
                        <mxPoint x="900" y="790" as="sourcePoint"/>
                        <mxPoint x="1030" y="710" as="targetPoint"/>
                    </mxGeometry>
                </mxCell>
                <mxCell id="XzbfhV3OgB3xZBFxIBU7-68" value="&lt;font style=&quot;font-size: 24px;&quot;&gt;n&lt;/font&gt;" style="text;html=1;strokeColor=none;fillColor=none;align=center;verticalAlign=middle;whiteSpace=wrap;rounded=0;" vertex="1" parent="1">
                    <mxGeometry x="450" y="750" width="60" height="30" as="geometry"/>
                </mxCell>
                <mxCell id="XzbfhV3OgB3xZBFxIBU7-70" value="1" style="text;html=1;strokeColor=none;fillColor=none;align=center;verticalAlign=middle;whiteSpace=wrap;rounded=0;fontSize=24;" vertex="1" parent="1">
                    <mxGeometry x="590" y="470" width="60" height="30" as="geometry"/>
                </mxCell>
                <mxCell id="XzbfhV3OgB3xZBFxIBU7-71" value="包含" style="rhombus;whiteSpace=wrap;html=1;direction=east;" vertex="1" parent="1">
                    <mxGeometry x="510" y="590" width="130" height="80" as="geometry"/>
                </mxCell>
                <mxCell id="XzbfhV3OgB3xZBFxIBU7-73" value="" style="endArrow=none;html=1;entryX=0;entryY=1;entryDx=0;entryDy=0;exitX=0.5;exitY=0;exitDx=0;exitDy=0;" edge="1" parent="1" source="XzbfhV3OgB3xZBFxIBU7-71" target="XzbfhV3OgB3xZBFxIBU7-74">
                    <mxGeometry width="50" height="50" relative="1" as="geometry">
                        <mxPoint x="570" y="570" as="sourcePoint"/>
                        <mxPoint x="670" y="380" as="targetPoint"/>
                    </mxGeometry>
                </mxCell>
                <mxCell id="XzbfhV3OgB3xZBFxIBU7-74" value="&lt;font style=&quot;font-size: 26px;&quot;&gt;订单详情&lt;/font&gt;" style="rounded=0;whiteSpace=wrap;html=1;" vertex="1" parent="1">
                    <mxGeometry x="720" y="390" width="120" height="60" as="geometry"/>
                </mxCell>
                <mxCell id="XzbfhV3OgB3xZBFxIBU7-75" value="订单项号" style="ellipse;whiteSpace=wrap;html=1;rounded=0;" vertex="1" parent="1">
                    <mxGeometry x="950" y="100" width="120" height="80" as="geometry"/>
                </mxCell>
                <mxCell id="XzbfhV3OgB3xZBFxIBU7-76" value="" style="endArrow=none;html=1;exitX=0.5;exitY=0;exitDx=0;exitDy=0;entryX=0;entryY=1;entryDx=0;entryDy=0;" edge="1" parent="1" source="XzbfhV3OgB3xZBFxIBU7-74" target="XzbfhV3OgB3xZBFxIBU7-75">
                    <mxGeometry width="50" height="50" relative="1" as="geometry">
                        <mxPoint x="770" y="320" as="sourcePoint"/>
                        <mxPoint x="967.5735931288073" y="178.2842712474619" as="targetPoint"/>
                    </mxGeometry>
                </mxCell>
                <mxCell id="XzbfhV3OgB3xZBFxIBU7-79" value="n" style="text;html=1;strokeColor=none;fillColor=none;align=center;verticalAlign=middle;whiteSpace=wrap;rounded=0;fontSize=24;" vertex="1" parent="1">
                    <mxGeometry x="450" y="680" width="60" height="30" as="geometry"/>
                </mxCell>
                <mxCell id="XzbfhV3OgB3xZBFxIBU7-80" value="n" style="text;html=1;strokeColor=none;fillColor=none;align=center;verticalAlign=middle;whiteSpace=wrap;rounded=0;fontSize=24;" vertex="1" parent="1">
                    <mxGeometry x="690" y="750" width="60" height="30" as="geometry"/>
                </mxCell>
                <mxCell id="XzbfhV3OgB3xZBFxIBU7-84" value="书号" style="ellipse;whiteSpace=wrap;html=1;rounded=0;" vertex="1" parent="1">
                    <mxGeometry x="1030" y="210" width="120" height="80" as="geometry"/>
                </mxCell>
                <mxCell id="XzbfhV3OgB3xZBFxIBU7-85" value="书的数量" style="ellipse;whiteSpace=wrap;html=1;rounded=0;" vertex="1" parent="1">
                    <mxGeometry x="1090" y="330" width="120" height="80" as="geometry"/>
                </mxCell>
                <mxCell id="XzbfhV3OgB3xZBFxIBU7-86" value="金额" style="ellipse;whiteSpace=wrap;html=1;rounded=0;" vertex="1" parent="1">
                    <mxGeometry x="1060" y="460" width="120" height="80" as="geometry"/>
                </mxCell>
                <mxCell id="XzbfhV3OgB3xZBFxIBU7-88" value="" style="endArrow=none;html=1;exitX=1;exitY=0;exitDx=0;exitDy=0;entryX=0;entryY=0.5;entryDx=0;entryDy=0;" edge="1" parent="1" source="XzbfhV3OgB3xZBFxIBU7-74" target="XzbfhV3OgB3xZBFxIBU7-84">
                    <mxGeometry width="50" height="50" relative="1" as="geometry">
                        <mxPoint x="740" y="330" as="sourcePoint"/>
                        <mxPoint x="887.5735931288073" y="168.2842712474619" as="targetPoint"/>
                    </mxGeometry>
                </mxCell>
                <mxCell id="XzbfhV3OgB3xZBFxIBU7-89" value="" style="endArrow=none;html=1;exitX=1;exitY=0.5;exitDx=0;exitDy=0;entryX=0;entryY=0.5;entryDx=0;entryDy=0;" edge="1" parent="1" source="XzbfhV3OgB3xZBFxIBU7-74" target="XzbfhV3OgB3xZBFxIBU7-85">
                    <mxGeometry width="50" height="50" relative="1" as="geometry">
                        <mxPoint x="750" y="340" as="sourcePoint"/>
                        <mxPoint x="897.5735931288073" y="178.2842712474619" as="targetPoint"/>
                    </mxGeometry>
                </mxCell>
                <mxCell id="XzbfhV3OgB3xZBFxIBU7-90" value="" style="endArrow=none;html=1;exitX=1;exitY=1;exitDx=0;exitDy=0;entryX=0;entryY=0.5;entryDx=0;entryDy=0;" edge="1" parent="1" source="XzbfhV3OgB3xZBFxIBU7-74" target="XzbfhV3OgB3xZBFxIBU7-86">
                    <mxGeometry width="50" height="50" relative="1" as="geometry">
                        <mxPoint x="760" y="350" as="sourcePoint"/>
                        <mxPoint x="907.5735931288073" y="188.2842712474619" as="targetPoint"/>
                    </mxGeometry>
                </mxCell>
                <mxCell id="XzbfhV3OgB3xZBFxIBU7-107" value="" style="endArrow=none;html=1;entryX=0.25;entryY=0;entryDx=0;entryDy=0;exitX=0.5;exitY=1;exitDx=0;exitDy=0;" edge="1" parent="1" source="XzbfhV3OgB3xZBFxIBU7-108" target="XzbfhV3OgB3xZBFxIBU7-74">
                    <mxGeometry width="50" height="50" relative="1" as="geometry">
                        <mxPoint x="580" y="190" as="sourcePoint"/>
                        <mxPoint x="625" y="269.9999999999998" as="targetPoint"/>
                    </mxGeometry>
                </mxCell>
                <mxCell id="XzbfhV3OgB3xZBFxIBU7-108" value="包含" style="rhombus;whiteSpace=wrap;html=1;direction=east;" vertex="1" parent="1">
                    <mxGeometry x="690" y="130" width="130" height="80" as="geometry"/>
                </mxCell>
                <mxCell id="XzbfhV3OgB3xZBFxIBU7-109" value="" style="endArrow=none;html=1;exitX=0.5;exitY=0;exitDx=0;exitDy=0;entryX=0.5;entryY=1;entryDx=0;entryDy=0;" edge="1" parent="1" source="XzbfhV3OgB3xZBFxIBU7-108" target="XzbfhV3OgB3xZBFxIBU7-110">
                    <mxGeometry width="50" height="50" relative="1" as="geometry">
                        <mxPoint x="580" y="190" as="sourcePoint"/>
                        <mxPoint x="570" y="10" as="targetPoint"/>
                    </mxGeometry>
                </mxCell>
                <mxCell id="XzbfhV3OgB3xZBFxIBU7-110" value="&lt;font style=&quot;font-size: 26px;&quot;&gt;订单&lt;/font&gt;" style="rounded=0;whiteSpace=wrap;html=1;" vertex="1" parent="1">
                    <mxGeometry x="750" y="-80" width="120" height="60" as="geometry"/>
                </mxCell>
                <mxCell id="XzbfhV3OgB3xZBFxIBU7-111" value="1" style="text;html=1;strokeColor=none;fillColor=none;align=center;verticalAlign=middle;whiteSpace=wrap;rounded=0;fontSize=24;" vertex="1" parent="1">
                    <mxGeometry x="710" y="30" width="60" height="30" as="geometry"/>
                </mxCell>
                <mxCell id="XzbfhV3OgB3xZBFxIBU7-112" value="n" style="text;html=1;strokeColor=none;fillColor=none;align=center;verticalAlign=middle;whiteSpace=wrap;rounded=0;fontSize=24;" vertex="1" parent="1">
                    <mxGeometry x="680" y="260" width="60" height="30" as="geometry"/>
                </mxCell>
                <mxCell id="XzbfhV3OgB3xZBFxIBU7-113" value="订单号" style="ellipse;whiteSpace=wrap;html=1;rounded=0;" vertex="1" parent="1">
                    <mxGeometry x="820" y="-480" width="120" height="80" as="geometry"/>
                </mxCell>
                <mxCell id="XzbfhV3OgB3xZBFxIBU7-114" value="日期" style="ellipse;whiteSpace=wrap;html=1;rounded=0;" vertex="1" parent="1">
                    <mxGeometry x="990" y="-460" width="120" height="80" as="geometry"/>
                </mxCell>
                <mxCell id="XzbfhV3OgB3xZBFxIBU7-115" value="总金额" style="ellipse;whiteSpace=wrap;html=1;rounded=0;" vertex="1" parent="1">
                    <mxGeometry x="1080" y="-360" width="120" height="80" as="geometry"/>
                </mxCell>
                <mxCell id="XzbfhV3OgB3xZBFxIBU7-116" value="地址" style="ellipse;whiteSpace=wrap;html=1;rounded=0;" vertex="1" parent="1">
                    <mxGeometry x="1130" y="-240" width="120" height="80" as="geometry"/>
                </mxCell>
                <mxCell id="XzbfhV3OgB3xZBFxIBU7-117" value="客户号" style="ellipse;whiteSpace=wrap;html=1;rounded=0;" vertex="1" parent="1">
                    <mxGeometry x="670" y="-440" width="120" height="80" as="geometry"/>
                </mxCell>
                <mxCell id="XzbfhV3OgB3xZBFxIBU7-118" value="状态" style="ellipse;whiteSpace=wrap;html=1;rounded=0;" vertex="1" parent="1">
                    <mxGeometry x="1070" y="-80" width="120" height="80" as="geometry"/>
                </mxCell>
                <mxCell id="XzbfhV3OgB3xZBFxIBU7-120" value="" style="endArrow=none;html=1;exitX=0;exitY=0.5;exitDx=0;exitDy=0;entryX=1;entryY=0.5;entryDx=0;entryDy=0;" edge="1" parent="1" source="XzbfhV3OgB3xZBFxIBU7-118" target="XzbfhV3OgB3xZBFxIBU7-110">
                    <mxGeometry width="50" height="50" relative="1" as="geometry">
                        <mxPoint x="515" y="150" as="sourcePoint"/>
                        <mxPoint x="620" y="-30" as="targetPoint"/>
                    </mxGeometry>
                </mxCell>
                <mxCell id="XzbfhV3OgB3xZBFxIBU7-121" value="" style="endArrow=none;html=1;exitX=0;exitY=1;exitDx=0;exitDy=0;entryX=1;entryY=0;entryDx=0;entryDy=0;" edge="1" parent="1" source="XzbfhV3OgB3xZBFxIBU7-116" target="XzbfhV3OgB3xZBFxIBU7-110">
                    <mxGeometry width="50" height="50" relative="1" as="geometry">
                        <mxPoint x="837" y="-70" as="sourcePoint"/>
                        <mxPoint x="740" y="-60" as="targetPoint"/>
                    </mxGeometry>
                </mxCell>
                <mxCell id="XzbfhV3OgB3xZBFxIBU7-122" value="" style="endArrow=none;html=1;exitX=0;exitY=1;exitDx=0;exitDy=0;entryX=0.75;entryY=0;entryDx=0;entryDy=0;" edge="1" parent="1" source="XzbfhV3OgB3xZBFxIBU7-115" target="XzbfhV3OgB3xZBFxIBU7-110">
                    <mxGeometry width="50" height="50" relative="1" as="geometry">
                        <mxPoint x="847" y="-60" as="sourcePoint"/>
                        <mxPoint x="750" y="-50" as="targetPoint"/>
                    </mxGeometry>
                </mxCell>
                <mxCell id="XzbfhV3OgB3xZBFxIBU7-123" value="" style="endArrow=none;html=1;exitX=0.39;exitY=1;exitDx=0;exitDy=0;entryX=0.5;entryY=0;entryDx=0;entryDy=0;exitPerimeter=0;" edge="1" parent="1" source="XzbfhV3OgB3xZBFxIBU7-114" target="XzbfhV3OgB3xZBFxIBU7-110">
                    <mxGeometry width="50" height="50" relative="1" as="geometry">
                        <mxPoint x="857" y="-50" as="sourcePoint"/>
                        <mxPoint x="760" y="-40" as="targetPoint"/>
                    </mxGeometry>
                </mxCell>
                <mxCell id="XzbfhV3OgB3xZBFxIBU7-124" value="" style="endArrow=none;html=1;exitX=0.5;exitY=1;exitDx=0;exitDy=0;entryX=0.25;entryY=0;entryDx=0;entryDy=0;" edge="1" parent="1" source="XzbfhV3OgB3xZBFxIBU7-113" target="XzbfhV3OgB3xZBFxIBU7-110">
                    <mxGeometry width="50" height="50" relative="1" as="geometry">
                        <mxPoint x="867" y="-40" as="sourcePoint"/>
                        <mxPoint x="770" y="-30" as="targetPoint"/>
                    </mxGeometry>
                </mxCell>
                <mxCell id="XzbfhV3OgB3xZBFxIBU7-125" value="" style="endArrow=none;html=1;exitX=0.5;exitY=1;exitDx=0;exitDy=0;entryX=0;entryY=0;entryDx=0;entryDy=0;" edge="1" parent="1" source="XzbfhV3OgB3xZBFxIBU7-117" target="XzbfhV3OgB3xZBFxIBU7-110">
                    <mxGeometry width="50" height="50" relative="1" as="geometry">
                        <mxPoint x="877" y="-30" as="sourcePoint"/>
                        <mxPoint x="780" y="-20" as="targetPoint"/>
                    </mxGeometry>
                </mxCell>
                <mxCell id="XzbfhV3OgB3xZBFxIBU7-126" value="" style="endArrow=none;html=1;entryX=0;entryY=0.5;entryDx=0;entryDy=0;exitX=1;exitY=0.5;exitDx=0;exitDy=0;" edge="1" parent="1" source="XzbfhV3OgB3xZBFxIBU7-127" target="XzbfhV3OgB3xZBFxIBU7-110">
                    <mxGeometry width="50" height="50" relative="1" as="geometry">
                        <mxPoint x="460" y="-70" as="sourcePoint"/>
                        <mxPoint x="790" y="-10" as="targetPoint"/>
                    </mxGeometry>
                </mxCell>
                <mxCell id="XzbfhV3OgB3xZBFxIBU7-127" value="下单" style="rhombus;whiteSpace=wrap;html=1;direction=east;" vertex="1" parent="1">
                    <mxGeometry x="450" y="-180" width="130" height="80" as="geometry"/>
                </mxCell>
                <mxCell id="XzbfhV3OgB3xZBFxIBU7-128" value="n" style="text;html=1;strokeColor=none;fillColor=none;align=center;verticalAlign=middle;whiteSpace=wrap;rounded=0;fontSize=24;" vertex="1" parent="1">
                    <mxGeometry x="610" y="-100" width="60" height="30" as="geometry"/>
                </mxCell>
                <mxCell id="XzbfhV3OgB3xZBFxIBU7-129" value="1" style="text;html=1;strokeColor=none;fillColor=none;align=center;verticalAlign=middle;whiteSpace=wrap;rounded=0;fontSize=24;" vertex="1" parent="1">
                    <mxGeometry x="360" y="-180" width="60" height="30" as="geometry"/>
                </mxCell>
                <mxCell id="XzbfhV3OgB3xZBFxIBU7-130" value="" style="endArrow=none;html=1;entryX=0;entryY=0.5;entryDx=0;entryDy=0;exitX=1;exitY=0.5;exitDx=0;exitDy=0;" edge="1" parent="1" source="XzbfhV3OgB3xZBFxIBU7-132" target="XzbfhV3OgB3xZBFxIBU7-127">
                    <mxGeometry width="50" height="50" relative="1" as="geometry">
                        <mxPoint x="160" y="-160" as="sourcePoint"/>
                        <mxPoint x="320" y="-160" as="targetPoint"/>
                    </mxGeometry>
                </mxCell>
                <mxCell id="XzbfhV3OgB3xZBFxIBU7-132" value="&lt;font style=&quot;font-size: 26px;&quot;&gt;客户&lt;/font&gt;" style="rounded=0;whiteSpace=wrap;html=1;" vertex="1" parent="1">
                    <mxGeometry x="220" y="-310" width="120" height="60" as="geometry"/>
                </mxCell>
                <mxCell id="XzbfhV3OgB3xZBFxIBU7-134" value="客户号" style="ellipse;whiteSpace=wrap;html=1;rounded=0;" vertex="1" parent="1">
                    <mxGeometry x="90" y="-624" width="120" height="80" as="geometry"/>
                </mxCell>
                <mxCell id="XzbfhV3OgB3xZBFxIBU7-135" value="姓名" style="ellipse;whiteSpace=wrap;html=1;rounded=0;" vertex="1" parent="1">
                    <mxGeometry x="-50" y="-544" width="120" height="80" as="geometry"/>
                </mxCell>
                <mxCell id="XzbfhV3OgB3xZBFxIBU7-136" value="地址" style="ellipse;whiteSpace=wrap;html=1;rounded=0;" vertex="1" parent="1">
                    <mxGeometry x="-120" y="-430" width="120" height="80" as="geometry"/>
                </mxCell>
                <mxCell id="XzbfhV3OgB3xZBFxIBU7-137" value="用户名" style="ellipse;whiteSpace=wrap;html=1;rounded=0;" vertex="1" parent="1">
                    <mxGeometry x="-150" y="-320" width="120" height="80" as="geometry"/>
                </mxCell>
                <mxCell id="XzbfhV3OgB3xZBFxIBU7-138" value="密码" style="ellipse;whiteSpace=wrap;html=1;rounded=0;" vertex="1" parent="1">
                    <mxGeometry x="-140" y="-205" width="120" height="80" as="geometry"/>
                </mxCell>
                <mxCell id="XzbfhV3OgB3xZBFxIBU7-144" value="" style="endArrow=none;html=1;exitX=1;exitY=1;exitDx=0;exitDy=0;entryX=0.75;entryY=0;entryDx=0;entryDy=0;" edge="1" parent="1" source="XzbfhV3OgB3xZBFxIBU7-134" target="XzbfhV3OgB3xZBFxIBU7-132">
                    <mxGeometry width="50" height="50" relative="1" as="geometry">
                        <mxPoint x="250" y="-629.9999999999998" as="sourcePoint"/>
                        <mxPoint x="270" y="-350" as="targetPoint"/>
                    </mxGeometry>
                </mxCell>
                <mxCell id="XzbfhV3OgB3xZBFxIBU7-145" value="" style="endArrow=none;html=1;exitX=1;exitY=0.5;exitDx=0;exitDy=0;entryX=0.5;entryY=0;entryDx=0;entryDy=0;" edge="1" parent="1" source="XzbfhV3OgB3xZBFxIBU7-135" target="XzbfhV3OgB3xZBFxIBU7-132">
                    <mxGeometry width="50" height="50" relative="1" as="geometry">
                        <mxPoint x="780" y="-569.9999999999998" as="sourcePoint"/>
                        <mxPoint x="800" y="-290" as="targetPoint"/>
                    </mxGeometry>
                </mxCell>
                <mxCell id="XzbfhV3OgB3xZBFxIBU7-146" value="" style="endArrow=none;html=1;exitX=1;exitY=0.5;exitDx=0;exitDy=0;entryX=0;entryY=0;entryDx=0;entryDy=0;" edge="1" parent="1" source="XzbfhV3OgB3xZBFxIBU7-136" target="XzbfhV3OgB3xZBFxIBU7-132">
                    <mxGeometry width="50" height="50" relative="1" as="geometry">
                        <mxPoint x="69.99999999999318" y="-520" as="sourcePoint"/>
                        <mxPoint x="290" y="-300" as="targetPoint"/>
                    </mxGeometry>
                </mxCell>
                <mxCell id="XzbfhV3OgB3xZBFxIBU7-147" value="" style="endArrow=none;html=1;exitX=1;exitY=0.5;exitDx=0;exitDy=0;" edge="1" parent="1" source="XzbfhV3OgB3xZBFxIBU7-137">
                    <mxGeometry width="50" height="50" relative="1" as="geometry">
                        <mxPoint x="79.99999999999318" y="-510" as="sourcePoint"/>
                        <mxPoint x="220" y="-280" as="targetPoint"/>
                    </mxGeometry>
                </mxCell>
                <mxCell id="XzbfhV3OgB3xZBFxIBU7-149" value="" style="endArrow=none;html=1;exitX=0;exitY=1;exitDx=0;exitDy=0;entryX=1;entryY=0;entryDx=0;entryDy=0;" edge="1" parent="1" source="XzbfhV3OgB3xZBFxIBU7-132" target="XzbfhV3OgB3xZBFxIBU7-138">
                    <mxGeometry width="50" height="50" relative="1" as="geometry">
                        <mxPoint x="99.99999999999318" y="-490" as="sourcePoint"/>
                        <mxPoint x="320" y="-270" as="targetPoint"/>
                    </mxGeometry>
                </mxCell>
                <mxCell id="XzbfhV3OgB3xZBFxIBU7-151" value="账户金额" style="ellipse;whiteSpace=wrap;html=1;rounded=0;" vertex="1" parent="1">
                    <mxGeometry x="-110" y="-100" width="120" height="80" as="geometry"/>
                </mxCell>
                <mxCell id="XzbfhV3OgB3xZBFxIBU7-152" value="信用评级" style="ellipse;whiteSpace=wrap;html=1;rounded=0;" vertex="1" parent="1">
                    <mxGeometry x="-10" y="-10" width="120" height="80" as="geometry"/>
                </mxCell>
                <mxCell id="XzbfhV3OgB3xZBFxIBU7-153" value="" style="endArrow=none;html=1;entryX=1;entryY=0;entryDx=0;entryDy=0;exitX=0.25;exitY=1;exitDx=0;exitDy=0;" edge="1" parent="1" source="XzbfhV3OgB3xZBFxIBU7-132" target="XzbfhV3OgB3xZBFxIBU7-151">
                    <mxGeometry width="50" height="50" relative="1" as="geometry">
                        <mxPoint x="250" y="-240" as="sourcePoint"/>
                        <mxPoint x="190" y="50" as="targetPoint"/>
                    </mxGeometry>
                </mxCell>
                <mxCell id="XzbfhV3OgB3xZBFxIBU7-154" value="" style="endArrow=none;html=1;exitX=0.5;exitY=1;exitDx=0;exitDy=0;entryX=0.5;entryY=0;entryDx=0;entryDy=0;" edge="1" parent="1" source="XzbfhV3OgB3xZBFxIBU7-132" target="XzbfhV3OgB3xZBFxIBU7-152">
                    <mxGeometry width="50" height="50" relative="1" as="geometry">
                        <mxPoint x="270" y="-230" as="sourcePoint"/>
                        <mxPoint x="180" y="40" as="targetPoint"/>
                    </mxGeometry>
                </mxCell>
                <mxCell id="XzbfhV3OgB3xZBFxIBU7-156" value="&lt;span style=&quot;font-size: 26px;&quot;&gt;采购单&lt;/span&gt;" style="rounded=0;whiteSpace=wrap;html=1;" vertex="1" parent="1">
                    <mxGeometry x="580" y="1200" width="120" height="60" as="geometry"/>
                </mxCell>
                <mxCell id="XzbfhV3OgB3xZBFxIBU7-157" value="&lt;font style=&quot;font-size: 26px;&quot;&gt;缺书记录&lt;/font&gt;" style="rounded=0;whiteSpace=wrap;html=1;" vertex="1" parent="1">
                    <mxGeometry x="320" y="280" width="120" height="60" as="geometry"/>
                </mxCell>
                <mxCell id="XzbfhV3OgB3xZBFxIBU7-158" value="包含" style="rhombus;whiteSpace=wrap;html=1;direction=east;" vertex="1" parent="1">
                    <mxGeometry x="315" y="480" width="130" height="80" as="geometry"/>
                </mxCell>
                <mxCell id="XzbfhV3OgB3xZBFxIBU7-159" value="" style="endArrow=none;html=1;entryX=0.5;entryY=1;entryDx=0;entryDy=0;exitX=1;exitY=0;exitDx=0;exitDy=0;" edge="1" parent="1" source="2" target="XzbfhV3OgB3xZBFxIBU7-71">
                    <mxGeometry width="50" height="50" relative="1" as="geometry">
                        <mxPoint x="580" y="580" as="sourcePoint"/>
                        <mxPoint x="730" y="460" as="targetPoint"/>
                    </mxGeometry>
                </mxCell>
                <mxCell id="XzbfhV3OgB3xZBFxIBU7-160" value="" style="endArrow=none;html=1;entryX=0.75;entryY=0;entryDx=0;entryDy=0;exitX=0.5;exitY=1;exitDx=0;exitDy=0;" edge="1" parent="1" source="XzbfhV3OgB3xZBFxIBU7-158" target="2">
                    <mxGeometry width="50" height="50" relative="1" as="geometry">
                        <mxPoint x="585" y="600" as="sourcePoint"/>
                        <mxPoint x="730" y="460" as="targetPoint"/>
                    </mxGeometry>
                </mxCell>
                <mxCell id="XzbfhV3OgB3xZBFxIBU7-161" value="" style="endArrow=none;html=1;exitX=0.5;exitY=0;exitDx=0;exitDy=0;" edge="1" parent="1" source="XzbfhV3OgB3xZBFxIBU7-158" target="XzbfhV3OgB3xZBFxIBU7-157">
                    <mxGeometry width="50" height="50" relative="1" as="geometry">
                        <mxPoint x="595" y="610" as="sourcePoint"/>
                        <mxPoint x="740" y="470" as="targetPoint"/>
                    </mxGeometry>
                </mxCell>
                <mxCell id="XzbfhV3OgB3xZBFxIBU7-162" value="登记号" style="ellipse;whiteSpace=wrap;html=1;rounded=0;" vertex="1" parent="1">
                    <mxGeometry x="515" y="150" width="120" height="80" as="geometry"/>
                </mxCell>
                <mxCell id="XzbfhV3OgB3xZBFxIBU7-163" value="登记日期" style="ellipse;whiteSpace=wrap;html=1;rounded=0;" vertex="1" parent="1">
                    <mxGeometry x="250" y="30" width="120" height="80" as="geometry"/>
                </mxCell>
                <mxCell id="XzbfhV3OgB3xZBFxIBU7-164" value="书号" style="ellipse;whiteSpace=wrap;html=1;rounded=0;" vertex="1" parent="1">
                    <mxGeometry x="400" y="40" width="120" height="80" as="geometry"/>
                </mxCell>
                <mxCell id="XzbfhV3OgB3xZBFxIBU7-165" value="需求量" style="ellipse;whiteSpace=wrap;html=1;rounded=0;" vertex="1" parent="1">
                    <mxGeometry x="120" y="130" width="120" height="80" as="geometry"/>
                </mxCell>
                <mxCell id="XzbfhV3OgB3xZBFxIBU7-167" value="处理状态" style="ellipse;whiteSpace=wrap;html=1;rounded=0;" vertex="1" parent="1">
                    <mxGeometry x="100" y="240" width="120" height="80" as="geometry"/>
                </mxCell>
                <mxCell id="XzbfhV3OgB3xZBFxIBU7-168" value="" style="endArrow=none;html=1;entryX=1;entryY=0;entryDx=0;entryDy=0;exitX=0;exitY=1;exitDx=0;exitDy=0;" edge="1" parent="1" source="XzbfhV3OgB3xZBFxIBU7-162" target="XzbfhV3OgB3xZBFxIBU7-157">
                    <mxGeometry width="50" height="50" relative="1" as="geometry">
                        <mxPoint x="765" y="220" as="sourcePoint"/>
                        <mxPoint x="760" y="400" as="targetPoint"/>
                    </mxGeometry>
                </mxCell>
                <mxCell id="XzbfhV3OgB3xZBFxIBU7-169" value="" style="endArrow=none;html=1;entryX=0.75;entryY=0;entryDx=0;entryDy=0;exitX=0.5;exitY=1;exitDx=0;exitDy=0;" edge="1" parent="1" source="XzbfhV3OgB3xZBFxIBU7-164" target="XzbfhV3OgB3xZBFxIBU7-157">
                    <mxGeometry width="50" height="50" relative="1" as="geometry">
                        <mxPoint x="507.57359312880726" y="248.28427124746213" as="sourcePoint"/>
                        <mxPoint x="450" y="290" as="targetPoint"/>
                    </mxGeometry>
                </mxCell>
                <mxCell id="XzbfhV3OgB3xZBFxIBU7-170" value="" style="endArrow=none;html=1;exitX=0.5;exitY=1;exitDx=0;exitDy=0;entryX=0.5;entryY=0;entryDx=0;entryDy=0;" edge="1" parent="1" source="XzbfhV3OgB3xZBFxIBU7-163" target="XzbfhV3OgB3xZBFxIBU7-157">
                    <mxGeometry width="50" height="50" relative="1" as="geometry">
                        <mxPoint x="517.5735931288073" y="258.28427124746213" as="sourcePoint"/>
                        <mxPoint x="470" y="290" as="targetPoint"/>
                    </mxGeometry>
                </mxCell>
                <mxCell id="XzbfhV3OgB3xZBFxIBU7-171" value="" style="endArrow=none;html=1;exitX=1;exitY=1;exitDx=0;exitDy=0;entryX=0.25;entryY=0;entryDx=0;entryDy=0;" edge="1" parent="1" source="XzbfhV3OgB3xZBFxIBU7-165" target="XzbfhV3OgB3xZBFxIBU7-157">
                    <mxGeometry width="50" height="50" relative="1" as="geometry">
                        <mxPoint x="362.4264068711923" y="108.28427124746213" as="sourcePoint"/>
                        <mxPoint x="390" y="290" as="targetPoint"/>
                    </mxGeometry>
                </mxCell>
                <mxCell id="XzbfhV3OgB3xZBFxIBU7-172" value="" style="endArrow=none;html=1;exitX=1;exitY=0.5;exitDx=0;exitDy=0;entryX=0;entryY=0;entryDx=0;entryDy=0;" edge="1" parent="1" source="XzbfhV3OgB3xZBFxIBU7-167" target="XzbfhV3OgB3xZBFxIBU7-157">
                    <mxGeometry width="50" height="50" relative="1" as="geometry">
                        <mxPoint x="372.4264068711923" y="118.28427124746213" as="sourcePoint"/>
                        <mxPoint x="400" y="300" as="targetPoint"/>
                    </mxGeometry>
                </mxCell>
                <mxCell id="XzbfhV3OgB3xZBFxIBU7-173" value="1" style="text;html=1;strokeColor=none;fillColor=none;align=center;verticalAlign=middle;whiteSpace=wrap;rounded=0;fontSize=24;" vertex="1" parent="1">
                    <mxGeometry x="390" y="390" width="60" height="30" as="geometry"/>
                </mxCell>
                <mxCell id="XzbfhV3OgB3xZBFxIBU7-174" value="1" style="text;html=1;strokeColor=none;fillColor=none;align=center;verticalAlign=middle;whiteSpace=wrap;rounded=0;fontSize=24;" vertex="1" parent="1">
                    <mxGeometry x="385" y="615" width="60" height="30" as="geometry"/>
                </mxCell>
                <mxCell id="XzbfhV3OgB3xZBFxIBU7-175" value="" style="endArrow=none;html=1;exitX=1;exitY=1;exitDx=0;exitDy=0;entryX=0;entryY=0.5;entryDx=0;entryDy=0;" edge="1" parent="1" source="2" target="XzbfhV3OgB3xZBFxIBU7-176">
                    <mxGeometry width="50" height="50" relative="1" as="geometry">
                        <mxPoint x="390" y="840" as="sourcePoint"/>
                        <mxPoint x="550" y="950" as="targetPoint"/>
                    </mxGeometry>
                </mxCell>
                <mxCell id="XzbfhV3OgB3xZBFxIBU7-176" value="采购" style="rhombus;whiteSpace=wrap;html=1;" vertex="1" parent="1">
                    <mxGeometry x="450" y="980" width="130" height="80" as="geometry"/>
                </mxCell>
                <mxCell id="XzbfhV3OgB3xZBFxIBU7-178" value="" style="endArrow=none;html=1;exitX=0.5;exitY=1;exitDx=0;exitDy=0;entryX=0;entryY=0;entryDx=0;entryDy=0;" edge="1" parent="1" source="XzbfhV3OgB3xZBFxIBU7-176" target="XzbfhV3OgB3xZBFxIBU7-156">
                    <mxGeometry width="50" height="50" relative="1" as="geometry">
                        <mxPoint x="650" y="970" as="sourcePoint"/>
                        <mxPoint x="790" y="1090" as="targetPoint"/>
                    </mxGeometry>
                </mxCell>
                <mxCell id="XzbfhV3OgB3xZBFxIBU7-179" value="采购单号" style="ellipse;whiteSpace=wrap;html=1;rounded=0;" vertex="1" parent="1">
                    <mxGeometry x="800" y="1210" width="120" height="80" as="geometry"/>
                </mxCell>
                <mxCell id="XzbfhV3OgB3xZBFxIBU7-180" value="采购日期" style="ellipse;whiteSpace=wrap;html=1;rounded=0;" vertex="1" parent="1">
                    <mxGeometry x="790" y="1340" width="120" height="80" as="geometry"/>
                </mxCell>
                <mxCell id="XzbfhV3OgB3xZBFxIBU7-183" value="供应商号" style="ellipse;whiteSpace=wrap;html=1;rounded=0;" vertex="1" parent="1">
                    <mxGeometry x="515" y="1400" width="120" height="80" as="geometry"/>
                </mxCell>
                <mxCell id="XzbfhV3OgB3xZBFxIBU7-184" value="书号" style="ellipse;whiteSpace=wrap;html=1;rounded=0;" vertex="1" parent="1">
                    <mxGeometry x="370" y="1390" width="120" height="80" as="geometry"/>
                </mxCell>
                <mxCell id="XzbfhV3OgB3xZBFxIBU7-185" value="采购数量" style="ellipse;whiteSpace=wrap;html=1;rounded=0;" vertex="1" parent="1">
                    <mxGeometry x="660" y="1390" width="120" height="80" as="geometry"/>
                </mxCell>
                <mxCell id="XzbfhV3OgB3xZBFxIBU7-186" value="" style="endArrow=none;html=1;exitX=0;exitY=1;exitDx=0;exitDy=0;" edge="1" parent="1" source="XzbfhV3OgB3xZBFxIBU7-156" target="XzbfhV3OgB3xZBFxIBU7-184">
                    <mxGeometry width="50" height="50" relative="1" as="geometry">
                        <mxPoint x="890" y="1100" as="sourcePoint"/>
                        <mxPoint x="960" y="1360" as="targetPoint"/>
                    </mxGeometry>
                </mxCell>
                <mxCell id="XzbfhV3OgB3xZBFxIBU7-187" value="" style="endArrow=none;html=1;exitX=0.25;exitY=1;exitDx=0;exitDy=0;entryX=0.5;entryY=0;entryDx=0;entryDy=0;" edge="1" parent="1" source="XzbfhV3OgB3xZBFxIBU7-156" target="XzbfhV3OgB3xZBFxIBU7-183">
                    <mxGeometry width="50" height="50" relative="1" as="geometry">
                        <mxPoint x="780" y="1300.0000000000005" as="sourcePoint"/>
                        <mxPoint x="837.5735931288073" y="1551.7157287525383" as="targetPoint"/>
                    </mxGeometry>
                </mxCell>
                <mxCell id="XzbfhV3OgB3xZBFxIBU7-188" value="" style="endArrow=none;html=1;exitX=0.5;exitY=1;exitDx=0;exitDy=0;" edge="1" parent="1" source="XzbfhV3OgB3xZBFxIBU7-156" target="XzbfhV3OgB3xZBFxIBU7-185">
                    <mxGeometry width="50" height="50" relative="1" as="geometry">
                        <mxPoint x="790" y="1310.0000000000005" as="sourcePoint"/>
                        <mxPoint x="847.5735931288073" y="1561.7157287525383" as="targetPoint"/>
                    </mxGeometry>
                </mxCell>
                <mxCell id="XzbfhV3OgB3xZBFxIBU7-189" value="" style="endArrow=none;html=1;exitX=1;exitY=1;exitDx=0;exitDy=0;entryX=0;entryY=0.5;entryDx=0;entryDy=0;" edge="1" parent="1" source="XzbfhV3OgB3xZBFxIBU7-156" target="XzbfhV3OgB3xZBFxIBU7-180">
                    <mxGeometry width="50" height="50" relative="1" as="geometry">
                        <mxPoint x="800" y="1320.0000000000005" as="sourcePoint"/>
                        <mxPoint x="857.5735931288073" y="1571.7157287525383" as="targetPoint"/>
                    </mxGeometry>
                </mxCell>
                <mxCell id="XzbfhV3OgB3xZBFxIBU7-190" value="" style="endArrow=none;html=1;exitX=1;exitY=0.75;exitDx=0;exitDy=0;entryX=0.01;entryY=0.625;entryDx=0;entryDy=0;entryPerimeter=0;" edge="1" parent="1" source="XzbfhV3OgB3xZBFxIBU7-156" target="XzbfhV3OgB3xZBFxIBU7-179">
                    <mxGeometry width="50" height="50" relative="1" as="geometry">
                        <mxPoint x="810" y="1330.0000000000005" as="sourcePoint"/>
                        <mxPoint x="867.5735931288073" y="1581.7157287525383" as="targetPoint"/>
                    </mxGeometry>
                </mxCell>
                <mxCell id="XzbfhV3OgB3xZBFxIBU7-191" value="" style="endArrow=none;html=1;exitX=0.5;exitY=1;exitDx=0;exitDy=0;entryX=0.5;entryY=0;entryDx=0;entryDy=0;" edge="1" parent="1" source="XzbfhV3OgB3xZBFxIBU7-58" target="XzbfhV3OgB3xZBFxIBU7-193">
                    <mxGeometry width="50" height="50" relative="1" as="geometry">
                        <mxPoint x="890" y="840" as="sourcePoint"/>
                        <mxPoint x="860" y="940" as="targetPoint"/>
                    </mxGeometry>
                </mxCell>
                <mxCell id="XzbfhV3OgB3xZBFxIBU7-192" value="" style="endArrow=none;html=1;exitX=0.5;exitY=1;exitDx=0;exitDy=0;entryX=0.5;entryY=0;entryDx=0;entryDy=0;" edge="1" parent="1" source="XzbfhV3OgB3xZBFxIBU7-193" target="XzbfhV3OgB3xZBFxIBU7-156">
                    <mxGeometry width="50" height="50" relative="1" as="geometry">
                        <mxPoint x="900" y="850" as="sourcePoint"/>
                        <mxPoint x="1030.0000000000136" y="960" as="targetPoint"/>
                    </mxGeometry>
                </mxCell>
                <mxCell id="XzbfhV3OgB3xZBFxIBU7-193" value="提供" style="rhombus;whiteSpace=wrap;html=1;" vertex="1" parent="1">
                    <mxGeometry x="750" y="940" width="130" height="80" as="geometry"/>
                </mxCell>
                <mxCell id="XzbfhV3OgB3xZBFxIBU7-194" value="1" style="text;html=1;strokeColor=none;fillColor=none;align=center;verticalAlign=middle;whiteSpace=wrap;rounded=0;fontSize=24;" vertex="1" parent="1">
                    <mxGeometry x="820" y="880" width="60" height="30" as="geometry"/>
                </mxCell>
                <mxCell id="XzbfhV3OgB3xZBFxIBU7-195" value="1" style="text;html=1;strokeColor=none;fillColor=none;align=center;verticalAlign=middle;whiteSpace=wrap;rounded=0;fontSize=24;" vertex="1" parent="1">
                    <mxGeometry x="750" y="1095" width="60" height="30" as="geometry"/>
                </mxCell>
                <mxCell id="XzbfhV3OgB3xZBFxIBU7-197" value="1" style="text;html=1;strokeColor=none;fillColor=none;align=center;verticalAlign=middle;whiteSpace=wrap;rounded=0;fontSize=24;" vertex="1" parent="1">
                    <mxGeometry x="445" y="900" width="60" height="30" as="geometry"/>
                </mxCell>
                <mxCell id="XzbfhV3OgB3xZBFxIBU7-198" value="1" style="text;html=1;strokeColor=none;fillColor=none;align=center;verticalAlign=middle;whiteSpace=wrap;rounded=0;fontSize=24;" vertex="1" parent="1">
                    <mxGeometry x="560" y="1095" width="60" height="30" as="geometry"/>
                </mxCell>
            </root>
        </mxGraphModel>
    </diagram>
    <diagram id="mvPrhDKMDu1NsKCVcPN0" name="Page-2">
        <mxGraphModel dx="1130" dy="569" grid="1" gridSize="10" guides="1" tooltips="1" connect="1" arrows="1" fold="1" page="1" pageScale="1" pageWidth="827" pageHeight="1169" math="0" shadow="0">
            <root>
                <mxCell id="0"/>
                <mxCell id="1" parent="0"/>
            </root>
        </mxGraphModel>
    </diagram>
</mxfile>